<svg width="83" height="56" viewBox="0 0 83 56" fill="none" xmlns="http://www.w3.org/2000/svg">
<path d="M23.008 22.88V29.968C23.008 30.8107 23.2267 31.4453 23.664 31.872C24.112 32.2987 24.7307 32.512 25.52 32.512C26.32 32.512 26.9387 32.2987 27.376 31.872C27.824 31.4453 28.048 30.8107 28.048 29.968V22.88H29.872V29.936C29.872 30.8427 29.6747 31.6107 29.28 32.24C28.8853 32.8693 28.3573 33.3387 27.696 33.648C27.0347 33.9573 26.304 34.112 25.504 34.112C24.704 34.112 23.9733 33.9573 23.312 33.648C22.6613 33.3387 22.144 32.8693 21.76 32.24C21.376 31.6107 21.184 30.8427 21.184 29.936V22.88H23.008ZM38.9509 31.728H34.2949L33.4949 34H31.5909L35.5749 22.864H37.6869L41.6709 34H39.7509L38.9509 31.728ZM38.4389 30.24L36.6309 25.072L34.8069 30.24H38.4389Z" fill="#202053"/>
<path d="M55.0001 31.1667C54.8674 31.1673 54.74 31.1144 54.6467 31.02L49.3134 25.6867C49.1298 25.4897 49.1352 25.1827 49.3256 24.9922C49.5161 24.8018 49.8231 24.7964 50.0201 24.98L55.0001 29.96L59.9801 24.98C60.1771 24.7964 60.4841 24.8018 60.6745 24.9922C60.8649 25.1827 60.8703 25.4897 60.6867 25.6867L55.3534 31.02C55.2601 31.1144 55.1328 31.1673 55.0001 31.1667Z" fill="#202053"/>
</svg>
